# xmcd
#
# Track frame offsets: 
#        183
#        27785
#        49655
#        69115
#        82843
#        102848
#        116435
#        155735
#
# Disc length: 2322 seconds
#
# Revision: 3
# Processed by: cddbd v1.5.2PL0 Copyright (c) Steve Scherf et al.
# Submitted via: ExactAudioCopyFreeDBPlugin 1.0
#
DISCID=54091008
DTITLE=Millie Jackson - Hard Times
DYEAR=1982
DGENRE=Soul
TTITLE0=Blufunkes
TTITLE1=Special Occasion
TTITLE2=I Don't Want To Cry
TTITLE3=We're Gonna Make It
TTITLE4=Hard Times
TTITLE5=Blues Don't Get Tired Of Me
TTITLE6=Medley
TTITLE7=Feel Love Comin' On
EXTD=
EXTT0=
EXTT1=
EXTT2=
EXTT3=
EXTT4=
EXTT5=
EXTT6=
EXTT7=
PLAYORDER=
